PathFileType	3	(X/Y/Z)	D:\Vicon Database\Healthy Subjects\S0040\Jan. 30, 2020\Force Plate Walk 7.trc
DataRate	CameraRate	NumFrames	NumMarkers	Units	OrigDataRate	OrigDataStartFrame	OrigNumFrames
100.0	100.0	5	53	mm	100.0	513	319	
Frame#	Time	sternum_cluster1			sternum_cluster2			sternum_cluster3			left_asis			right_asis			left_psis			right_psis			sacrum_cluster1			sacrum_cluster2			sacrum_cluster3			left_lat_femoral_epicondyle			left_anterior_thigh15			left_anterior_thigh25			left_anterior_thigh50			left_lateral_thigh25			left_lateral_thigh50			left_thigh_cluster1			left_thigh_cluster2			left_thigh_cluster3			left_fibular_head			left_tibial_tuberosity			left_anterior_shank30			left_lateral_malleolus			left_shank_cluster1			left_shank_cluster2			left_shank_cluster3			left_heel			left_metatarsal2			left_foot_cluster1			left_foot_cluster2			left_foot_cluster3			right_lat_femoral_epicondyle			right_anterior_thigh15			right_anterior_thigh25			right_anterior_thigh50			right_lateral_thigh25			right_lateral_thigh50			right_thigh_cluster1			right_thigh_cluster2			right_thigh_cluster3			right_fibular_head			right_tibial_tuberosity			right_lateral_distal_shank			right_anterior_shank30			right_lateral_malleolus			right_shank_cluster1			right_shank_cluster2			right_shank_cluster3			right_heel			right_metatarsal2			right_foot_cluster1			right_foot_cluster2			right_foot_cluster3			
		X1	Y1	Z1	X2	Y2	Z2	X3	Y3	Z3	X4	Y4	Z4	X5	Y5	Z5	X6	Y6	Z6	X7	Y7	Z7	X8	Y8	Z8	X9	Y9	Z9	X10	Y10	Z10	X11	Y11	Z11	X12	Y12	Z12	X13	Y13	Z13	X14	Y14	Z14	X15	Y15	Z15	X16	Y16	Z16	X17	Y17	Z17	X18	Y18	Z18	X19	Y19	Z19	X20	Y20	Z20	X21	Y21	Z21	X22	Y22	Z22	X23	Y23	Z23	X24	Y24	Z24	X25	Y25	Z25	X26	Y26	Z26	X27	Y27	Z27	X28	Y28	Z28	X29	Y29	Z29	X30	Y30	Z30	X31	Y31	Z31	X32	Y32	Z32	X33	Y33	Z33	X34	Y34	Z34	X35	Y35	Z35	X36	Y36	Z36	X37	Y37	Z37	X38	Y38	Z38	X39	Y39	Z39	X40	Y40	Z40	X41	Y41	Z41	X42	Y42	Z42	X43	Y43	Z43	X44	Y44	Z44	X45	Y45	Z45	X46	Y46	Z46	X47	Y47	Z47	X48	Y48	Z48	X49	Y49	Z49	X50	Y50	Z50	X51	Y51	Z51	X52	Y52	Z52	X53	Y53	Z53	
513	5.12	-334.74362	1444.0253	-162.46402	-347.81412	1416.9362	-154.85631	-342.44614	1419.625	-192.22237	-331.24576	1061.9399	-36.807682	-319.73813	1072.7266	-283.72211	-163.50375	1079.8834	-82.619286	-155.13388	1079.1116	-199.67624	-148.0274	1135.5964	-147.21376	-141.72214	1110.3694	-158.61356	-142.96507	1105.196	-118.9332	-166.83983	548.79663	-21.196957	-278.24133	605.14459	-70.603653	-318.81516	684.33905	-51.978828	-348.82016	822.27716	-28.071856	-202.8024	698.13422	3.4767289	-244.38196	838.71912	33.106213	-230.20558	794.15149	37.508488	-222.40883	766.45911	35.01424	-259.01422	768.08203	37.652145	-152.64127	467.27548	-15.875558	-201.65657	446.46661	-72.216393	-127.96928	207.29648	-89.458321	-51.393913	106.63935	-64.84948	-192.48312	395.14648	-100.86295	-190.66684	367.2951	-92.978981	-176.1207	371.28104	-128.38708	27.589504	76.419823	-98.766663	-191.01022	59.957119	-97.180962	-134.56299	113.30815	-93.146889	-156.93401	95.748863	-82.43438	-161.94537	99.90229	-120.14551	-439.517	551.7428	-306.35925	-496.56644	661.60559	-260.52386	-475.48993	741.76721	-253.32901	-418.06183	857.16852	-253.09784	-383.08521	699.91229	-331.14438	-322.66888	835.8512	-352.76364	-335.84653	784.1839	-357.82486	-358.06299	764.27594	-356.61172	-323.06522	748.39117	-346.92392	-443.3028	484.69806	-310.86145	-505.61179	486.24191	-274.06357	-480.57922	216.09981	-299.50644	-529.685	239.48364	-261.36304	-507.59595	108.95909	-287.62598	-514.14227	421.05469	-219.95744	-514.44678	392.81616	-212.59438	-533.13177	394.49136	-245.11501	-450.88513	55.790852	-241.89468	-656.83893	122.371	-267.6142	-592.27808	152.67023	-261.28247	-619.87988	145.52666	-255.23448	-615.02179	145.86803	-292.34512
514	5.13	-349.55176	1441.4603	-163.09479	-362.63986	1414.3047	-155.62697	-357.25851	1417.015	-192.9684	-345.45819	1059.3258	-37.436787	-334.86108	1070.1121	-284.65573	-177.29697	1077.8051	-84.308365	-169.80215	1076.6218	-201.23196	-162.9798	1133.4788	-149.0782	-156.61415	1107.7991	-160.33139	-157.17923	1102.9316	-120.59529	-173.60901	549.05865	-21.158346	-285.94876	603.22571	-71.078812	-328.26343	681.98877	-52.711323	-360.53864	819.29468	-28.369629	-212.14888	697.88434	2.9577494	-255.67052	837.60095	31.705719	-241.26492	793.52161	37.246304	-232.44617	765.81812	34.171803	-269.45621	766.88306	37.226852	-158.01868	467.61792	-16.224056	-206.83765	446.03568	-72.381859	-129.95219	207.35384	-89.913719	-52.444637	107.69471	-65.075577	-197.13802	394.84891	-101.06721	-194.82007	366.99442	-93.070511	-180.51794	371.10812	-128.53777	26.853243	78.036041	-99.107414	-191.63861	59.846684	-97.047302	-135.63661	113.50925	-93.164177	-157.92416	95.562836	-82.372139	-162.98003	99.9217	-120.0986	-454.04108	548.52289	-306.33292	-508.27325	657.49646	-261.1268	-488.35123	736.79492	-254.38846	-432.42322	853.00262	-254.19017	-394.80475	695.7298	-332.41653	-335.97729	832.38391	-353.15491	-348.15237	781.08917	-358.20862	-370.40161	760.92664	-357.46057	-335.39291	745.33447	-348.2865	-461.83588	482.50143	-311.18457	-523.0816	486.54037	-273.19681	-514.5387	216.61171	-302.42444	-561.185	242.28532	-262.65097	-547.81476	110.9414	-291.67773	-533.97968	422.10089	-219.63722	-535.84235	393.9053	-212.51721	-555.11597	396.89606	-244.56281	-492.92957	53.762016	-245.85558	-694.99689	131.99884	-269.30136	-628.91736	158.74315	-263.43689	-656.76154	153.06555	-257.07922	-652.30713	153.37152	-294.25635
515	5.14	-364.44693	1438.6617	-163.88931	-377.53647	1411.5042	-156.44923	-372.12064	1414.2111	-193.79921	-359.73956	1056.6276	-38.130867	-350.03876	1067.2384	-285.64264	-191.67514	1075.0731	-85.676308	-184.31958	1074.0006	-202.81895	-177.65056	1130.9282	-150.95728	-171.11133	1105.709	-161.9243	-170.90581	1100.6527	-122.44291	-181.0166	549.06189	-21.539347	-294.46411	601.29688	-71.624916	-338.08572	679.36914	-53.007217	-372.68146	816.27869	-28.75848	-222.16362	697.22168	2.4209838	-267.92114	836.62573	31.748604	-252.61023	792.53033	36.437199	-242.61006	764.85742	32.322174	-280.39151	765.39343	36.747852	-164.00542	467.73087	-16.757082	-212.69325	445.46396	-72.676918	-132.821	207.99016	-89.625374	-53.56147	109.25581	-65.140961	-202.39156	394.38306	-101.25807	-199.48422	366.53589	-93.143715	-184.98154	370.37021	-129.12134	25.863958	80.583374	-99.290237	-192.34694	59.710724	-97.016579	-136.96147	113.86048	-93.199402	-159.04929	95.671028	-82.323799	-164.12903	99.915321	-120.09787	-468.93616	545.39905	-306.78732	-519.78967	652.9527	-261.40909	-501.35602	731.6051	-255.25284	-447.08313	848.83264	-255.33704	-406.11426	690.97498	-334.27039	-349.33389	828.69006	-353.76514	-360.80093	777.71533	-359.48895	-382.547	757.15875	-358.98221	-347.05148	741.88525	-349.91663	-481.73315	481.00864	-312.82605	-540.34003	486.69431	-272.07736	-546.75488	217.95599	-305.29083	-590.8172	245.3423	-263.77899	-584.92767	113.20218	-294.616	-552.84314	422.76804	-219.05423	-556.06146	394.5759	-212.23962	-576.34705	399.9386	-243.13068	-532.18097	52.899437	-250.12895	-730.64502	141.56914	-270.21451	-663.13702	164.96498	-265.13034	-691.23053	160.64484	-258.46432	-687.23108	160.9259	-295.66336
516	5.15	-379.3898	1435.7213	-164.71927	-392.44647	1408.5197	-157.29849	-387.07266	1411.3384	-194.63029	-374.09744	1053.8517	-38.908195	-365.29846	1064.3013	-286.79544	-206.20889	1073.0203	-87.200691	-198.97978	1071.3401	-204.29718	-192.21709	1128.0439	-152.76572	-185.68723	1102.6495	-163.79407	-185.29207	1098.1826	-124.275	-189.18353	548.78033	-22.159515				-348.71762	676.7489	-53.64679	-385.27054	813.26874	-29.201082	-232.78258	696.32111	1.7223843	-280.49484	835.23566	30.973619	-264.30487	791.06128	35.432304	-254.12341	763.72614	31.514011	-291.90118	763.70612	36.08926	-170.71875	467.8363	-17.223801	-219.2717	444.60928	-73.049652	-135.86497	208.42967	-90.00222	-54.989735	110.80501	-65.412529	-208.24464	393.78149	-101.52623	-204.85037	365.85446	-93.383438	-190.89777	369.98969	-129.02342	24.860487	82.814346	-99.455124	-193.01305	59.458889	-97.03389	-138.32193	114.14043	-93.192398	-160.15912	95.677177	-82.434868	-165.39131	99.976547	-120.14659	-483.36771	542.31726	-307.14026	-531.89063	648.66492	-261.34012	-514.73712	726.74261	-256.04727	-462.17282	844.82782	-256.70831	-417.38751	686.1178	-335.69702	-362.77264	824.86926	-354.55707	-373.3559	773.80902	-361.06915	-394.07233	752.77753	-360.15002	-359.46628	738.10272	-351.51242	-498.92487	478.9324	-312.30832	-557.56348	486.80353	-270.98318	-576.32172	219.45326	-307.491	-618.47028	248.39127	-264.9212	-619.31189	115.8719	-297.26886	-571.02112	423.03995	-218.51869	-575.62982	395.15002	-211.81932	-596.41693	401.87225	-242.13132	-568.33691	52.679993	-254.38797	-763.18683	150.64778	-270.3757	-694.65637	170.90977	-266.30615	-722.75262	167.769	-259.13174	-719.39215	168.18655	-296.39676
517	5.16	-394.3288	1432.6973	-165.55676	-407.37375	1405.5078	-158.13809	-402.00879	1408.2979	-195.47388	-388.54977	1051.0737	-39.691795	-380.5834	1061.3339	-287.96878	-220.6252	1070.3965	-88.996948	-213.84995	1068.3523	-206.03491	-206.68243	1125.2314	-154.5984	-200.53224	1099.4652	-165.58504	-199.9157	1095.2169	-126.29528	-198.15604	548.44727	-22.722309				-359.97678	674.10699	-54.11338	-398.20743	810.30316	-29.61076	-244.01468	695.14398	1.0434136	-293.52151	833.54565	30.853712	-276.71878	789.55316	34.643093	-266.15402	762.31396	30.913641	-304.02774	761.94287	35.493324	-178.14859	467.7868	-17.816864	-226.64384	443.71317	-73.307465	-138.91234	208.84129	-89.924538	-56.491383	112.56541	-65.497253	-214.90907	392.97348	-101.75279	-210.65714	365.03897	-93.682587	-197.10699	369.35178	-129.34897	23.685568	85.688667	-99.741562	-193.82722	59.231968	-97.057114	-140.03467	114.47742	-93.145073	-161.45059	95.748405	-82.505142	-166.79219	99.998726	-120.18761	-498.87442	539.47882	-308.26431	-545.31799	645.08105	-260.87415	-528.75635	722.73932	-256.97751	-477.70401	841.14417	-258.39532	-430.41492	681.86206	-336.69446	-376.57843	821.17328	-355.74469	-386.57388	769.5235	-362.59717	-406.89124	748.42969	-361.54889	-372.7294	734.06915	-352.29477	-516.18311	477.13687	-312.45227	-574.44611	486.70822	-270.18289	-605.20648	221.41713	-310.68591	-643.92297	250.87833	-265.84528	-650.37549	118.31645	-299.33966	-588.88849	422.95529	-218.29506	-594.66016	395.36145	-211.57356	-615.57593	403.12579	-241.64485	-601.29688	52.638729	-258.18378	-792.47052	158.71712	-269.85895	-723.07196	176.15918	-266.80106	-751.15521	174.05963	-259.14307	-748.4491	174.84	-296.44214
